<mxfile host="app.diagrams.net" modified="2023-11-15T17:51:22.070Z" agent="Mozilla/5.0 (Windows NT 10.0; Win64; x64) AppleWebKit/537.36 (KHTML, like Gecko) Chrome/119.0.0.0 Safari/537.36" etag="NKmytnsop1xjcyGPynFD" version="22.1.1" type="device">
  <diagram name="Page-1" id="sDtnHaCR7-iM3lxrPlRU">
    <mxGraphModel dx="1290" dy="522" grid="0" gridSize="10" guides="1" tooltips="1" connect="1" arrows="1" fold="1" page="1" pageScale="1" pageWidth="827" pageHeight="1169" math="0" shadow="0">
      <root>
        <mxCell id="0" />
        <mxCell id="1" parent="0" />
        <mxCell id="KgwbxJTax3cdy-o9lzFW-1" value="S0/1" style="ellipse;whiteSpace=wrap;html=1;" vertex="1" parent="1">
          <mxGeometry x="390" y="80" width="50" height="80" as="geometry" />
        </mxCell>
        <mxCell id="KgwbxJTax3cdy-o9lzFW-2" value="S1/0" style="ellipse;whiteSpace=wrap;html=1;" vertex="1" parent="1">
          <mxGeometry x="490" y="130" width="50" height="80" as="geometry" />
        </mxCell>
        <mxCell id="KgwbxJTax3cdy-o9lzFW-3" value="S2/1" style="ellipse;whiteSpace=wrap;html=1;" vertex="1" parent="1">
          <mxGeometry x="550" y="240" width="50" height="80" as="geometry" />
        </mxCell>
        <mxCell id="KgwbxJTax3cdy-o9lzFW-4" value="S4/1" style="ellipse;whiteSpace=wrap;html=1;" vertex="1" parent="1">
          <mxGeometry x="390" y="380" width="50" height="80" as="geometry" />
        </mxCell>
        <mxCell id="KgwbxJTax3cdy-o9lzFW-5" value="S7/0" style="ellipse;whiteSpace=wrap;html=1;" vertex="1" parent="1">
          <mxGeometry x="270" y="140" width="50" height="80" as="geometry" />
        </mxCell>
        <mxCell id="KgwbxJTax3cdy-o9lzFW-6" value="S6/1" style="ellipse;whiteSpace=wrap;html=1;" vertex="1" parent="1">
          <mxGeometry x="220" y="240" width="50" height="80" as="geometry" />
        </mxCell>
        <mxCell id="KgwbxJTax3cdy-o9lzFW-7" value="S5/0" style="ellipse;whiteSpace=wrap;html=1;" vertex="1" parent="1">
          <mxGeometry x="290" y="340" width="50" height="80" as="geometry" />
        </mxCell>
        <mxCell id="KgwbxJTax3cdy-o9lzFW-8" value="S3/0" style="ellipse;whiteSpace=wrap;html=1;" vertex="1" parent="1">
          <mxGeometry x="500" y="350" width="50" height="80" as="geometry" />
        </mxCell>
        <mxCell id="KgwbxJTax3cdy-o9lzFW-11" value="" style="endArrow=classic;html=1;rounded=0;exitX=1;exitY=0.5;exitDx=0;exitDy=0;entryX=0;entryY=0.5;entryDx=0;entryDy=0;" edge="1" parent="1" source="KgwbxJTax3cdy-o9lzFW-1" target="KgwbxJTax3cdy-o9lzFW-2">
          <mxGeometry width="50" height="50" relative="1" as="geometry">
            <mxPoint x="390" y="300" as="sourcePoint" />
            <mxPoint x="440" y="250" as="targetPoint" />
          </mxGeometry>
        </mxCell>
        <mxCell id="KgwbxJTax3cdy-o9lzFW-12" value="" style="endArrow=classic;html=1;rounded=0;exitX=1;exitY=1;exitDx=0;exitDy=0;entryX=0;entryY=0;entryDx=0;entryDy=0;" edge="1" parent="1" source="KgwbxJTax3cdy-o9lzFW-2" target="KgwbxJTax3cdy-o9lzFW-3">
          <mxGeometry width="50" height="50" relative="1" as="geometry">
            <mxPoint x="560" y="180" as="sourcePoint" />
            <mxPoint x="610" y="230" as="targetPoint" />
          </mxGeometry>
        </mxCell>
        <mxCell id="KgwbxJTax3cdy-o9lzFW-13" value="" style="endArrow=classic;html=1;rounded=0;exitX=0.5;exitY=1;exitDx=0;exitDy=0;entryX=1;entryY=0;entryDx=0;entryDy=0;" edge="1" parent="1" source="KgwbxJTax3cdy-o9lzFW-3" target="KgwbxJTax3cdy-o9lzFW-8">
          <mxGeometry width="50" height="50" relative="1" as="geometry">
            <mxPoint x="540" y="320" as="sourcePoint" />
            <mxPoint x="590" y="370" as="targetPoint" />
          </mxGeometry>
        </mxCell>
        <mxCell id="KgwbxJTax3cdy-o9lzFW-14" value="" style="endArrow=classic;html=1;rounded=0;exitX=0;exitY=1;exitDx=0;exitDy=0;entryX=1;entryY=0.5;entryDx=0;entryDy=0;" edge="1" parent="1" source="KgwbxJTax3cdy-o9lzFW-8" target="KgwbxJTax3cdy-o9lzFW-4">
          <mxGeometry width="50" height="50" relative="1" as="geometry">
            <mxPoint x="440" y="410" as="sourcePoint" />
            <mxPoint x="490" y="460" as="targetPoint" />
          </mxGeometry>
        </mxCell>
        <mxCell id="KgwbxJTax3cdy-o9lzFW-15" value="" style="endArrow=classic;html=1;rounded=0;exitX=0;exitY=0.5;exitDx=0;exitDy=0;entryX=1;entryY=0.5;entryDx=0;entryDy=0;" edge="1" parent="1" source="KgwbxJTax3cdy-o9lzFW-4" target="KgwbxJTax3cdy-o9lzFW-7">
          <mxGeometry width="50" height="50" relative="1" as="geometry">
            <mxPoint x="480" y="160" as="sourcePoint" />
            <mxPoint x="530" y="210" as="targetPoint" />
          </mxGeometry>
        </mxCell>
        <mxCell id="KgwbxJTax3cdy-o9lzFW-16" value="" style="endArrow=classic;html=1;rounded=0;exitX=0;exitY=0;exitDx=0;exitDy=0;entryX=1;entryY=1;entryDx=0;entryDy=0;" edge="1" parent="1" source="KgwbxJTax3cdy-o9lzFW-7" target="KgwbxJTax3cdy-o9lzFW-6">
          <mxGeometry width="50" height="50" relative="1" as="geometry">
            <mxPoint x="490" y="170" as="sourcePoint" />
            <mxPoint x="540" y="220" as="targetPoint" />
          </mxGeometry>
        </mxCell>
        <mxCell id="KgwbxJTax3cdy-o9lzFW-17" value="" style="endArrow=classic;html=1;rounded=0;exitX=1;exitY=0;exitDx=0;exitDy=0;entryX=0;entryY=1;entryDx=0;entryDy=0;" edge="1" parent="1" source="KgwbxJTax3cdy-o9lzFW-6" target="KgwbxJTax3cdy-o9lzFW-5">
          <mxGeometry width="50" height="50" relative="1" as="geometry">
            <mxPoint x="500" y="180" as="sourcePoint" />
            <mxPoint x="550" y="230" as="targetPoint" />
          </mxGeometry>
        </mxCell>
        <mxCell id="KgwbxJTax3cdy-o9lzFW-18" value="" style="endArrow=classic;html=1;rounded=0;exitX=1;exitY=0;exitDx=0;exitDy=0;entryX=0;entryY=0.5;entryDx=0;entryDy=0;" edge="1" parent="1" source="KgwbxJTax3cdy-o9lzFW-5" target="KgwbxJTax3cdy-o9lzFW-1">
          <mxGeometry width="50" height="50" relative="1" as="geometry">
            <mxPoint x="510" y="190" as="sourcePoint" />
            <mxPoint x="560" y="240" as="targetPoint" />
          </mxGeometry>
        </mxCell>
      </root>
    </mxGraphModel>
  </diagram>
</mxfile>
